# AST/ASF file generated using VICON BodyLanguage
# -----------------------------------------------
:version 1.10
:name VICON
:units
  mass 1.0
  length 0.45
  angle deg
:documentation
   .ast/.asf automatically generated from VICON data using
   VICON BodyBuilder and BodyLanguage model FoxedUp or BRILLIANT.MOD
:root
   order TX TY TZ RX RY RZ
   axis XYZ
   position 0 0 0  
   orientation 0 0 0 
:bonedata
  begin
     id 1 
     name lhipjoint
     direction 0.602128 -0.715006 0.355257 
     length 2.21237 
     axis 0 0 0  XYZ
  end
  begin
     id 2 
     name lfemur
     direction 0.34202 -0.939693 0  
     length 6.71649  
     axis 0 0 20  XYZ
    dof rx ry rz
    limits (-160.0 20.0)
           (-70.0 70.0)
           (-60.0 70.0)
  end
  begin
     id 3 
     name ltibia
     direction 0.34202 -0.939693 0   
     length 6.97123   
     axis 0 0 20   XYZ
    dof rx
    limits (-10.0 170.0)
  end
  begin
     id 4 
     name lfoot
     direction 0.0655697 -0.180151 0.981451   
     length 1.80924   
     axis -90 7.62852e-016 20   XYZ
    dof rx rz
    limits (-45.0 90.0)
           (-70.0 20.0)
  end
  begin
     id 5 
     name ltoes
     direction 1.53545e-011 -4.21827e-011 1   
     length 0.916331   
     axis -90 7.62852e-016 20   XYZ
    dof rx
    limits (-90.0 20.0)
  end
  begin
     id 6 
     name rhipjoint
     direction -0.625414 -0.698792 0.347201   
     length 2.2637  
     axis 0 0 0  XYZ 
  end
  begin
     id 7 
     name rfemur
     direction -0.34202 -0.939693 0   
     length 7.07595   
     axis 0 0 -20   XYZ
    dof rx ry rz
    limits (-160.0 20.0)
           (-70.0 70.0)
           (-70.0 60.0)
  end
  begin
     id 8 
     name rtibia
     direction -0.34202 -0.939693 0   
     length 7.22924   
     axis 0 0 -20   XYZ
    dof rx
    limits (-10.0 170.0)
 end
 begin
     id 9 
     name rfoot
     direction -0.0766747 -0.210662 0.974547   
     length 1.98482  
     axis -90 -7.62852e-016 -20   XYZ
    dof rx rz
    limits (-45.0 90.0)
           (-20.0 70.0)
  end
  begin
     id 10 
     name rtoes
     direction -1.53532e-011 -4.21867e-011 1   
     length 0.999842   
     axis -90 -7.62852e-016 -20   XYZ
    dof rx
    limits (-90.0 20.0)
  end
  begin
     id 11 
     name lowerback
     direction -0.0224668 0.997354 -0.0691422   
     length 2.09945   
     axis 0 0 0   XYZ
    dof rx ry rz
    limits (-20.0 45.0)
           (-30.0 30.0)
           (-30.0 30.0)
  end
  begin
     id 12 
     name upperback
     direction 0.0134698 0.998451 -0.0539888   
     length 2.09758   
     axis 0 0 0   XYZ
    dof rx ry rz
    limits (-20.0 45.0)
           (-30.0 30.0)
           (-30.0 30.0)
  end
  begin
     id 13 
     name thorax
     direction 0.0241905 0.99948 -0.0213333   
     length 2.10428   
     axis 0 0 0   XYZ
    dof rx ry rz
    limits (-20.0 45.0)
           (-30.0 30.0)
           (-30.0 30.0)
  end
  begin
     id 14 
     name lowerneck
     direction -0.00866847 0.995978 0.0891737   
     length 1.3959   
     axis 0 0 0   XYZ
    dof rx ry rz
    limits (-20.0 45.0)
           (-30.0 30.0)
           (-30.0 30.0)
  end
  begin
     id 15 
     name upperneck
     direction 0.0680679 0.992203 0.104404   
     length 1.39452   
     axis 0 0 0   XYZ
    dof rx ry rz
    limits (-20.0 45.0)
           (-30.0 30.0)
           (-30.0 30.0)
  end
  begin
     id 16
     name head
     direction 0.0242216 0.999358 0.0264054  
     length 1.40433  
     axis 0 0 0   XYZ
    dof rx ry rz
    limits (-20.0 45.0)
           (-30.0 30.0)
           (-30.0 30.0)
  end
  begin
     id 17 
     name lclavicle
     direction 0.929368 0.362991 -0.0671771  
     length 3.04887  
     axis 0 0 0   XYZ
    dof ry rz
    limits (-20.0 10.0)
           (0.0 20.0)
  end
  begin
     id 18 
     name lhumerus
     direction 1 -4.48967e-011 -7.13741e-028   
     length 4.77195   
     axis -180 -30 -90   XYZ
    dof rx ry rz
    limits (-60.0 90.0)
           (-90.0 90.0)
           (-90.0 90.0)
  end
  begin
     id 19
     name lradius
     direction 1 -4.48977e-011 3.60404e-027   
     length 2.98444   
     axis -180 -30 -90   XYZ
    dof rx
    limits (-10.0 170.0)
  end
  begin
     id 20
     name lwrist
     direction 1 -4.48997e-011 7.54877e-027   
     length 1.49222   
     axis -7.18178e-015 90 90   XYZ
    dof ry
    limits (-180.0 0.0)
 end
  begin
     id 21 
     name lhand
     direction 1 -4.489e-011 1.51105e-026   
     length 0.992285   
     axis -9.63605e-015 90 90   XYZ
    dof rx rz
    limits (-90.0 90.0)
           (-45.0 45.0)
  end
  begin
     id 22 
     name lfingers
     direction 1 -4.48998e-011 3.01948e-026   
     length 0.800006   
     axis -1.92718e-014 90 90   XYZ
    dof rx
    limits (0.0 90.0)
  end
  begin
     id 23
     name lthumb
     direction 0.707107 -6.34881e-011 0.707107   
     length 1.14865   
     axis -90 45 -3.53137e-014   XYZ
    dof rx rz
    limits (-45.0 45.0)
           (-45.0 45.0)
  end
  begin
     id 24 
     name rclavicle
     direction -0.945672 0.324529 0.0196374   
     length 3.4236  
     axis 0 0 0   XYZ 
    dof ry rz
    limits (-10.0 20.0)
           (-20.0 0.0)
  end
  begin
     id 25 
     name rhumerus
     direction -1 -4.4896e-011 1.02757e-029  
     length 4.62052   
     axis -180 30 90   XYZ
    dof rx ry rz
    limits (-90.0 60.0)
           (-90.0 90.0)
           (-90.0 90.0)
  end
  begin
     id 26 
     name rradius
     direction -1 -4.48982e-011 3.85962e-027   
     length 2.95332   
     axis -180 30 90   XYZ
    dof rx
    limits (-10.0 170.0)
  end
  begin
     id 27 
     name rwrist
     direction -1 -4.48961e-011 7.55118e-027   
     length 1.47666   
     axis -7.18178e-015 -90 -90   XYZ
    dof ry
    limits (-180.0 0.0)
  end
  begin
     id 28
     name rhand
     direction -1 -4.48984e-011 1.50994e-026   
     length 0.990956   
     axis -9.63605e-015 -90 -90   XYZ
    dof rx rz
    limits (-90.0 90.0)
           (-45.0 45.0)
  end
  begin
     id 29
     name rfingers
     direction -1 -4.4892e-011 3.02158e-026   
     length 0.798934   
     axis -1.92718e-014 -90 -90   XYZ
    dof rx
    limits (0.0 90.0)
  end
  begin
     id 30
     name rthumb
     direction -0.707107 -6.34916e-011 0.707107   
     length 1.14711   
     axis -90 -45 3.53137e-014   XYZ
    dof rx rz
    limits (-45.0 45.0)
           (-45.0 45.0)
  end
:hierarchy
  begin
    root lhipjoint rhipjoint lowerback
    lhipjoint lfemur
    lfemur ltibia
    ltibia lfoot
    lfoot ltoes
    rhipjoint rfemur
    rfemur rtibia
    rtibia rfoot
    rfoot rtoes
    lowerback upperback
    upperback thorax
    thorax lowerneck lclavicle rclavicle
    lowerneck upperneck
    upperneck head
    lclavicle lhumerus
    lhumerus lradius
    lradius lwrist
    lwrist lhand lthumb
    lhand lfingers
    rclavicle rhumerus
    rhumerus rradius
    rradius rwrist
    rwrist rhand rthumb
    rhand rfingers
  end

#!OML:ASF H:\ManfredObstacles\Project 1\Capture day 1\Session 1\Male.ASF
:FULLY-SPECIFIED
:DEGREES
98
root -2.57516 15.6787 46.544 -170.023 -6.67401 -178.855
lowerback -8.35398 -3.19603 -1.74338
upperback 1.84181 -4.14098 0.914439
thorax 6.81267 -2.12282 1.34623
lowerneck 0.620736 -2.67848 -5.4819
upperneck -10.9203 -2.36516 9.83862
head -3.11926 -1.11563 3.94859
rclavicle -1.88845e-015 7.95139e-016
rhumerus -41.4791 -29.9741 -69.2157
rradius 23.9843
rwrist 38.089
rhand -1.65406 -5.57849
rfingers 7.12502
rthumb 24.0052 -34.0975
lclavicle -1.88845e-015 7.95139e-016
lhumerus -24.3815 13.5355 83.8731
lradius 20.4198
lwrist -20.8659
lhand -0.445557 10.1922
lfingers 7.12502
lthumb 25.1635 38.5536
rfemur -31.5057 0.718298 22.5752
rtibia 40.5035
rfoot -24.0809 8.80027
rtoes 12.9692
lfemur -9.97568 -7.66867 -15.2121
ltibia 41.1214
lfoot -3.98676 -4.28315
ltoes -22.0732
99
root -2.51412 15.6977 46.4346 -170.053 -6.64734 -178.867
lowerback -8.31465 -3.23675 -1.65422
upperback 1.87868 -4.19874 0.813453
thorax 6.81707 -2.14539 1.18361
lowerneck 0.556718 -2.65194 -5.40291
upperneck -10.9088 -2.32737 9.78328
head -3.11037 -1.09532 3.91644
rclavicle -2.49972e-014 -4.37326e-015
rhumerus -41.3008 -29.7068 -69.5123
rradius 24.0451
rwrist 37.9135
rhand -1.44609 -5.59816
rfingers 7.12502
rthumb 24.2046 -34.0907
lclavicle -2.49972e-014 -4.37326e-015
lhumerus -24.4206 13.2075 83.7271
lradius 20.3513
lwrist -21.8608
lhand -1.75174 9.61463
lfingers 7.12502
lthumb 23.9115 38.1459
rfemur -30.8691 0.375072 22.9214
rtibia 40.1412
rfoot -23.8565 9.36599
rtoes 12.3833
lfemur -11.9181 -7.38153 -15.129
ltibia 44.5875
lfoot -1.76015 -2.99492
ltoes -22.8997
100
root -2.45938 15.7135 46.328 -170.089 -6.57911 -178.777
lowerback -8.26331 -3.18706 -1.48689
upperback 1.90393 -4.14786 0.763126
thorax 6.79606 -2.11276 1.04745
lowerneck 0.564415 -2.64234 -5.39308
upperneck -10.9155 -2.30751 9.82254
head -3.11457 -1.08652 3.92664
rclavicle 5.37216e-014 -8.34896e-015
rhumerus -41.224 -29.2813 -69.789
rradius 24.2622
rwrist 37.4921
rhand -1.32188 -5.63013
rfingers 7.12502
rthumb 24.3237 -34.1068
lclavicle 5.37216e-014 -8.34896e-015
lhumerus -24.4903 12.5439 83.8067
lradius 20.5609
lwrist -22.5006
lhand -2.75702 9.43295
lfingers 7.12502
lthumb 22.9471 38.0873
rfemur -30.2056 -0.0284336 23.3549
rtibia 39.6745
rfoot -23.6979 9.74262
rtoes 11.0302
lfemur -14.06 -6.91746 -15.0081
ltibia 48.3622
lfoot 0.166557 -1.92174
ltoes -20.885
101
root -2.40868 15.7302 46.225 -170.119 -6.62277 -178.624
lowerback -8.14314 -3.1128 -1.24642
upperback 1.90565 -4.07552 0.756623
thorax 6.70843 -2.06777 0.923979
lowerneck 0.640215 -2.65168 -5.4052
upperneck -10.9683 -2.31972 9.81817
head -3.14186 -1.09405 3.92951
rclavicle -1.48592e-014 -1.98785e-016
rhumerus -41.162 -28.8019 -70.0481
rradius 24.5461
rwrist 36.9903
rhand -1.2793 -5.66222
rfingers 7.12502
rthumb 24.3645 -34.1334
lclavicle -1.48592e-014 -1.98785e-016
lhumerus -24.3588 12.3347 83.7854
lradius 20.7223
lwrist -22.5029
lhand -2.70662 9.73971
lfingers 7.12502
lthumb 22.9955 38.388
rfemur -29.5129 -0.610453 23.8562
rtibia 39.1216
rfoot -23.2785 10.1453
rtoes 8.43648
lfemur -16.429 -6.37111 -14.8264
ltibia 52.2768
lfoot 2.0039 -0.971992
ltoes -10.7969
102
root -2.3606 15.7483 46.1249 -170.199 -6.64227 -178.462
lowerback -7.89467 -3.03018 -0.976773
upperback 1.90414 -3.9965 0.764968
thorax 6.54358 -2.01928 0.807522
lowerneck 0.758514 -2.71033 -5.34144
upperneck -11.0058 -2.42262 9.65462
head -3.1691 -1.14801 3.87319
rclavicle 6.26172e-015 -1.39149e-015
rhumerus -40.9532 -28.1518 -70.3887
rradius 24.7744
rwrist 36.4581
rhand -1.22846 -5.74047
rfingers 7.12502
rthumb 24.4132 -34.2051
lclavicle 6.26172e-015 -1.39149e-015
lhumerus -24.1012 12.6668 83.6278
lradius 20.7058
lwrist -22.4668
lhand -2.54154 9.53158
lfingers 7.12502
lthumb 23.1539 38.1601
rfemur -28.7814 -1.19139 24.3547
rtibia 38.541
rfoot -23.7696 11.5679
rtoes 14.8145
lfemur -18.8171 -5.75988 -14.702
ltibia 56.0916
lfoot 2.64407 -0.00657049
ltoes -6.94481
103
root -2.31634 15.7524 46.0261 -170.281 -6.53744 -178.171
lowerback -7.7023 -2.90306 -0.658931
upperback 1.93204 -3.86721 0.850277
thorax 6.44394 -1.94657 0.746482
lowerneck 0.917186 -2.67985 -5.25397
upperneck -11.358 -2.35445 9.52799
head -3.30936 -1.11271 3.82599
rclavicle -3.08613e-014 -6.95746e-015
rhumerus -40.6667 -27.5379 -70.6606
rradius 24.9322
rwrist 36.174
rhand -1.34396 -5.67815
rfingers 7.12502
rthumb 24.3025 -34.1576
lclavicle -3.08613e-014 -6.95746e-015
lhumerus -23.8756 13.3156 83.463
lradius 20.754
lwrist -22.4628
lhand -2.41872 8.67225
lfingers 7.12502
lthumb 23.2717 37.2859
rfemur -28.077 -1.60705 24.9592
rtibia 37.9692
rfoot -24.0058 12.2496
rtoes 15.9471
lfemur -21.2186 -5.21632 -14.5369
ltibia 59.6155
lfoot 2.67483 1.13244
ltoes -5.42262
104
root -2.27255 15.7509 45.927 -170.514 -6.37807 -177.949
lowerback -7.41476 -2.77748 -0.514865
upperback 2.04544 -3.724 0.94246
thorax 6.39302 -1.87487 0.792605
lowerneck 0.933374 -2.65562 -5.29072
upperneck -11.3863 -2.3237 9.5057
head -3.3227 -1.09549 3.82525
rclavicle 5.99336e-014 -7.95139e-016
rhumerus -40.2981 -27.0687 -70.9189
rradius 25.089
rwrist 36.1153
rhand -1.51403 -5.71343
rfingers 7.12502
rthumb 24.1394 -34.2146
lclavicle 5.99336e-014 -7.95139e-016
lhumerus -23.7582 13.4991 83.4885
lradius 21.002
lwrist -22.4312
lhand -2.57332 8.40537
lfingers 7.12502
lthumb 23.1234 37.0377
rfemur -27.1695 -2.04388 25.4707
rtibia 37.4124
rfoot -24.0869 12.8012
rtoes 16.0081
lfemur -23.4028 -4.77545 -14.5286
ltibia 62.6788
lfoot 1.78015 1.72049
ltoes -4.83011
105
root -2.23146 15.7598 45.8242 -170.755 -6.08572 -177.853
lowerback -7.1278 -2.66092 -0.48685
upperback 2.15954 -3.57789 0.987572
thorax 6.34736 -1.80511 0.853716
lowerneck 0.961316 -2.6089 -5.46248
upperneck -11.2671 -2.27714 9.60877
head -3.29101 -1.07354 3.88324
rclavicle 2.5345e-014 -1.78906e-015
rhumerus -39.8247 -26.6961 -71.1709
rradius 25.1546
rwrist 36.153
rhand -1.50801 -5.7101
rfingers 7.12502
rthumb 24.1452 -34.2105
lclavicle 2.5345e-014 -1.78906e-015
lhumerus -23.8107 13.028 83.7422
lradius 21.2451
lwrist -22.9709
lhand -3.71554 8.66067
lfingers 7.12502
lthumb 22.0271 37.4263
rfemur -26.2778 -2.43671 25.7936
rtibia 36.9859
rfoot -24.3597 13.759
rtoes 18.3993
lfemur -25.4374 -4.31912 -14.687
ltibia 65.1692
lfoot 0.802012 2.06521
ltoes -4.96868
106
root -2.19719 15.7781 45.7168 -170.893 -5.74399 -177.793
lowerback -6.96623 -2.52379 -0.437707
upperback 2.22638 -3.40232 0.996264
thorax 6.31893 -1.7183 0.863331
lowerneck 1.0716 -2.5537 -5.53094
upperneck -11.1622 -2.22465 9.65304
head -3.28066 -1.05374 3.90719
rclavicle 1.2275e-014 7.15625e-015
rhumerus -39.4544 -26.5327 -71.3024
rradius 25.1856
rwrist 36.2842
rhand -1.50655 -5.4099
rfingers 7.12502
rthumb 24.1466 -33.9102
lclavicle 1.2275e-014 7.15625e-015
lhumerus -23.9815 12.4199 83.9841
lradius 21.6405
lwrist -23.0341
lhand -4.56517 8.92634
lfingers 7.12502
lthumb 21.2111 37.7858
rfemur -25.5331 -2.80006 26.0273
rtibia 36.6496
rfoot -25.0897 14.7201
rtoes 20.8967
lfemur -27.4832 -4.03418 -14.8603
ltibia 67.0794
lfoot 0.107967 2.18851
ltoes 13.1042
107
root -2.16352 15.7725 45.6143 -171.129 -5.45922 -177.918
lowerback -6.66514 -2.35235 -0.607123
upperback 2.29677 -3.15513 0.927449
thorax 6.22049 -1.60293 0.928389
lowerneck 1.23642 -2.54768 -5.37095
upperneck -11.1035 -2.23678 9.57443
head -3.29386 -1.07093 3.85808
rclavicle 2.49475e-014 -6.36111e-015
rhumerus -39.2682 -26.6152 -71.3364
rradius 25.2819
rwrist 36.3861
rhand -1.60102 -5.36651
rfingers 7.12502
rthumb 24.056 -33.8788
lclavicle 2.49475e-014 -6.36111e-015
lhumerus -24.2452 11.6357 84.14
lradius 22.3569
lwrist -22.0733
lhand -4.50183 9.07804
lfingers 7.12502
lthumb 21.272 37.9307
rfemur -24.823 -3.23606 26.0638
rtibia 36.5088
rfoot -25.8856 15.3536
rtoes 21.2663
lfemur -29.0902 -3.72031 -15.3258
ltibia 68.3828
lfoot -0.902421 2.16196
ltoes 15.8186
108
root -2.12993 15.7641 45.5117 -171.358 -5.21334 -178.044
lowerback -6.34023 -2.19765 -0.788405
upperback 2.35263 -2.93058 0.85781
thorax 6.09337 -1.49895 0.996117
lowerneck 1.399 -2.58683 -5.13459
upperneck -11.0567 -2.31249 9.42589
head -3.30786 -1.11998 3.77651
rclavicle -3.3694e-014 3.37934e-015
rhumerus -39.0578 -26.6891 -71.4158
rradius 25.4319
rwrist 36.3465
rhand -1.61514 -5.48675
rfingers 7.12502
rthumb 24.0425 -34.0008
lclavicle -3.3694e-014 3.37934e-015
lhumerus -24.397 11.4349 84.0685
lradius 22.734
lwrist -21.4375
lhand -4.16877 8.95492
lfingers 7.12502
lthumb 21.5919 37.7712
rfemur -24.1914 -3.46087 26.069
rtibia 36.5156
rfoot -26.3146 15.9484
rtoes 21.8618
lfemur -30.787 -3.55098 -15.7238
ltibia 69.1868
lfoot -1.51073 2.44462
ltoes 12.7565
109
root -2.09906 15.748 45.4053 -171.427 -4.9132 -178.104
lowerback -6.22967 -2.06451 -0.881417
upperback 2.40386 -2.74246 0.794477
thorax 6.0802 -1.40912 1.00734
lowerneck 1.371 -2.56858 -5.02044
upperneck -10.8568 -2.30676 9.40119
head -3.24639 -1.12241 3.74624
rclavicle 3.41413e-014 -5.96354e-015
rhumerus -38.7324 -26.657 -71.69
rradius 25.6409
rwrist 36.1218
rhand -1.64999 -5.45314
rfingers 7.12502
rthumb 24.0091 -33.9716
lclavicle 3.41413e-014 -5.96354e-015
lhumerus -24.3475 11.8864 83.7169
lradius 22.743
lwrist -20.8465
lhand -3.35299 8.49289
lfingers 7.12502
lthumb 22.3752 37.2171
rfemur -23.8109 -3.41609 26.1211
rtibia 36.7341
rfoot -26.6711 16.3738
rtoes 22.7897
lfemur -32.6501 -3.48828 -16.0238
ltibia 69.6141
lfoot -2.76382 2.41904
ltoes 6.57298
110
root -2.0675 15.7351 45.2903 -171.533 -4.5172 -178.16
lowerback -6.18774 -1.93219 -1.04683
upperback 2.50506 -2.55153 0.752838
thorax 6.16315 -1.32213 1.07817
lowerneck 1.1765 -2.46349 -5.01095
upperneck -10.5703 -2.18345 9.4106
head -3.13783 -1.05809 3.73745
rclavicle 7.65321e-015 -6.95746e-015
rhumerus -38.3431 -26.496 -72.1066
rradius 25.8867
rwrist 35.7501
rhand -1.72787 -5.47075
rfingers 7.12502
rthumb 23.9344 -33.999
lclavicle 7.65321e-015 -6.95746e-015
lhumerus -24.3138 12.0659 83.4329
lradius 22.7064
lwrist -20.4429
lhand -2.90504 7.73234
lfingers 7.12502
lthumb 22.8051 36.4042
rfemur -23.3219 -3.37935 26.1727
rtibia 36.9247
rfoot -27.0489 16.6058
rtoes 22.546
lfemur -34.3144 -3.52472 -16.2472
ltibia 69.5927
lfoot -4.03633 2.32795
ltoes 3.00915
111
root -2.03647 15.7101 45.1745 -171.735 -4.21854 -178.104
lowerback -6.05321 -1.82655 -1.07092
upperback 2.57039 -2.4116 0.749473
thorax 6.15161 -1.25549 1.10754
lowerneck 1.193 -2.38148 -5.07115
upperneck -10.4236 -2.0963 9.40953
head -3.10279 -1.01628 3.74331
rclavicle 4.37326e-014 -1.03368e-014
rhumerus -38.1097 -25.9824 -72.6316
rradius 26.2986
rwrist 35.0119
rhand -1.65942 -5.46405
rfingers 7.12502
rthumb 24 -33.9837
lclavicle 4.37326e-014 -1.03368e-014
lhumerus -24.3988 12.068 83.2126
lradius 22.518
lwrist -20.5552
lhand -3.0862 7.06294
lfingers 7.12502
lthumb 22.6312 35.7562
rfemur -22.7515 -3.59628 26.3577
rtibia 37.131
rfoot -27.443 17.0666
rtoes 22.314
lfemur -35.3999 -3.31293 -16.444
ltibia 69.2137
lfoot -5.5118 1.87669
ltoes -1.76534
